<svg width="471" height="466" viewBox="0 0 471 466" fill="none" xmlns="http://www.w3.org/2000/svg">
<path d="M0.642663 300.776L65.0645 37.0633C66.7245 30.2681 74.6692 27.2332 80.4369 31.1909L301.825 183.106C305.243 185.451 306.859 189.662 305.889 193.692L242.394 457.405C240.755 464.211 232.81 467.27 227.03 463.32L4.71511 311.405C1.27673 309.056 -0.345588 304.821 0.642663 300.776Z" fill="#AF59E5" fill-opacity="0.5"/>
<path d="M395.001 225.57L237.357 4.56488C233.295 -1.12979 224.792 -1.00135 220.904 4.81339L71.6574 228.009C69.3532 231.455 69.4138 235.965 71.8098 239.347L228.592 460.696C232.639 466.409 241.152 466.303 245.055 460.491L395.161 236.951C397.483 233.494 397.419 228.96 395.001 225.57Z" fill="#AF59E5" fill-opacity="0.5"/>
<path d="M470.357 300.276L405.936 36.5633C404.276 29.7681 396.331 26.7332 390.563 30.6909L169.175 182.606C165.758 184.951 164.141 189.162 165.111 193.192L228.606 456.905C230.245 463.711 238.19 466.77 243.97 462.82L466.285 310.905C469.723 308.556 471.346 304.321 470.357 300.276Z" fill="#AF59E5" fill-opacity="0.5"/>
</svg>
